<svg xmlns="http://www.w3.org/2000/svg" xmlns:xlink="http://www.w3.org/1999/xlink" width="641" zoomAndPan="magnify" viewBox="0 0 480.75 480.749983" height="641" preserveAspectRatio="xMidYMid meet" version="1.0"><defs><clipPath id="2b9975f5a8"><path d="M 145 287 L 335 287 L 335 295.816406 L 145 295.816406 Z M 145 287 " clip-rule="nonzero"/></clipPath><clipPath id="23fa474aa8"><path d="M 145 184.871094 L 335 184.871094 L 335 194 L 145 194 Z M 145 184.871094 " clip-rule="nonzero"/></clipPath><clipPath id="32574f1fdb"><path d="M 145 184.871094 L 232 184.871094 L 232 245 L 145 245 Z M 145 184.871094 " clip-rule="nonzero"/></clipPath></defs><g clip-path="url(#2b9975f5a8)"><path fill="#cb001c" d="M 145.496094 287.171875 L 334.871094 287.171875 L 334.871094 295.6875 L 145.496094 295.6875 Z M 145.496094 287.171875 " fill-opacity="1" fill-rule="nonzero"/></g><path fill="#ffffff" d="M 145.496094 278.644531 L 334.871094 278.644531 L 334.871094 287.171875 L 145.496094 287.171875 Z M 145.496094 278.644531 " fill-opacity="1" fill-rule="nonzero"/><path fill="#cb001c" d="M 145.496094 270.125 L 334.871094 270.125 L 334.871094 278.644531 L 145.496094 278.644531 Z M 145.496094 270.125 " fill-opacity="1" fill-rule="nonzero"/><path fill="#ffffff" d="M 145.496094 261.59375 L 334.871094 261.59375 L 334.871094 270.125 L 145.496094 270.125 Z M 145.496094 261.59375 " fill-opacity="1" fill-rule="nonzero"/><path fill="#cb001c" d="M 145.496094 253.074219 L 334.871094 253.074219 L 334.871094 261.59375 L 145.496094 261.59375 Z M 145.496094 253.074219 " fill-opacity="1" fill-rule="nonzero"/><path fill="#ffffff" d="M 145.496094 244.554688 L 334.871094 244.554688 L 334.871094 253.074219 L 145.496094 253.074219 Z M 145.496094 244.554688 " fill-opacity="1" fill-rule="nonzero"/><path fill="#cb001c" d="M 145.496094 236.027344 L 334.871094 236.027344 L 334.871094 244.554688 L 145.496094 244.554688 Z M 145.496094 236.027344 " fill-opacity="1" fill-rule="nonzero"/><path fill="#ffffff" d="M 145.496094 227.5 L 334.871094 227.5 L 334.871094 236.019531 L 145.496094 236.019531 Z M 145.496094 227.5 " fill-opacity="1" fill-rule="nonzero"/><path fill="#cb001c" d="M 145.496094 218.972656 L 334.871094 218.972656 L 334.871094 227.5 L 145.496094 227.5 Z M 145.496094 218.972656 " fill-opacity="1" fill-rule="nonzero"/><path fill="#ffffff" d="M 145.496094 210.445312 L 334.871094 210.445312 L 334.871094 218.96875 L 145.496094 218.96875 Z M 145.496094 210.445312 " fill-opacity="1" fill-rule="nonzero"/><path fill="#cb001c" d="M 145.496094 201.925781 L 334.871094 201.925781 L 334.871094 210.445312 L 145.496094 210.445312 Z M 145.496094 201.925781 " fill-opacity="1" fill-rule="nonzero"/><path fill="#ffffff" d="M 145.496094 193.398438 L 334.871094 193.398438 L 334.871094 201.921875 L 145.496094 201.921875 Z M 145.496094 193.398438 " fill-opacity="1" fill-rule="nonzero"/><g clip-path="url(#23fa474aa8)"><path fill="#cb001c" d="M 145.496094 184.871094 L 334.871094 184.871094 L 334.871094 193.398438 L 145.496094 193.398438 Z M 145.496094 184.871094 " fill-opacity="1" fill-rule="nonzero"/></g><g clip-path="url(#32574f1fdb)"><path fill="#2a3560" d="M 145.496094 184.871094 L 231.953125 184.871094 L 231.953125 244.554688 L 145.496094 244.554688 Z M 145.496094 184.871094 " fill-opacity="1" fill-rule="nonzero"/></g><path fill="#ffffff" d="M 153.296875 191.445312 L 154.023438 193.707031 L 156.386719 193.707031 L 154.476562 195.097656 L 155.203125 197.355469 L 153.296875 195.957031 L 151.378906 197.355469 L 152.113281 195.097656 L 150.199219 193.707031 L 152.558594 193.707031 Z M 153.296875 191.445312 " fill-opacity="1" fill-rule="nonzero"/><path fill="#ffffff" d="M 153.296875 201.410156 L 154.023438 203.664062 L 156.386719 203.664062 L 154.476562 205.0625 L 155.203125 207.316406 L 153.296875 205.921875 L 151.378906 207.316406 L 152.113281 205.0625 L 150.199219 203.664062 L 152.558594 203.664062 Z M 153.296875 201.410156 " fill-opacity="1" fill-rule="nonzero"/><path fill="#ffffff" d="M 153.296875 211.371094 L 154.023438 213.621094 L 156.386719 213.621094 L 154.476562 215.019531 L 155.203125 217.273438 L 153.296875 215.878906 L 151.378906 217.273438 L 152.113281 215.019531 L 150.199219 213.621094 L 152.558594 213.621094 Z M 153.296875 211.371094 " fill-opacity="1" fill-rule="nonzero"/><path fill="#ffffff" d="M 153.296875 221.335938 L 154.023438 223.589844 L 156.386719 223.589844 L 154.476562 224.984375 L 155.203125 227.230469 L 153.296875 225.84375 L 151.378906 227.230469 L 152.113281 224.984375 L 150.199219 223.589844 L 152.558594 223.589844 Z M 153.296875 221.335938 " fill-opacity="1" fill-rule="nonzero"/><path fill="#ffffff" d="M 153.296875 231.292969 L 154.023438 233.546875 L 156.386719 233.546875 L 154.476562 234.945312 L 155.203125 237.195312 L 153.296875 235.808594 L 151.378906 237.195312 L 152.113281 234.945312 L 150.199219 233.546875 L 152.558594 233.546875 Z M 153.296875 231.292969 " fill-opacity="1" fill-rule="nonzero"/><path fill="#ffffff" d="M 160.214844 196.699219 L 160.9375 198.953125 L 163.296875 198.953125 L 161.390625 200.347656 L 162.117188 202.601562 L 160.214844 201.207031 L 158.296875 202.601562 L 159.027344 200.347656 L 157.117188 198.953125 L 159.480469 198.953125 Z M 160.214844 196.699219 " fill-opacity="1" fill-rule="nonzero"/><path fill="#ffffff" d="M 160.214844 206.65625 L 160.9375 208.910156 L 163.296875 208.910156 L 161.390625 210.304688 L 162.117188 212.5625 L 160.214844 211.167969 L 158.296875 212.5625 L 159.027344 210.304688 L 157.117188 208.910156 L 159.480469 208.910156 Z M 160.214844 206.65625 " fill-opacity="1" fill-rule="nonzero"/><path fill="#ffffff" d="M 160.214844 216.621094 L 160.9375 218.875 L 163.296875 218.875 L 161.390625 220.269531 L 162.117188 222.519531 L 160.214844 221.128906 L 158.296875 222.519531 L 159.027344 220.269531 L 157.117188 218.875 L 159.480469 218.875 Z M 160.214844 216.621094 " fill-opacity="1" fill-rule="nonzero"/><path fill="#ffffff" d="M 160.214844 226.582031 L 160.9375 228.832031 L 163.296875 228.832031 L 161.390625 230.230469 L 162.117188 232.484375 L 160.214844 231.085938 L 158.296875 232.484375 L 159.027344 230.230469 L 157.117188 228.832031 L 159.480469 228.832031 Z M 160.214844 226.582031 " fill-opacity="1" fill-rule="nonzero"/><path fill="#ffffff" d="M 167.214844 191.445312 L 167.945312 193.707031 L 170.3125 193.707031 L 168.398438 195.097656 L 169.125 197.355469 L 167.214844 195.957031 L 165.300781 197.355469 L 166.027344 195.097656 L 164.113281 193.707031 L 166.484375 193.707031 Z M 167.214844 191.445312 " fill-opacity="1" fill-rule="nonzero"/><path fill="#ffffff" d="M 167.214844 201.410156 L 167.945312 203.664062 L 170.3125 203.664062 L 168.398438 205.0625 L 169.125 207.316406 L 167.214844 205.921875 L 165.300781 207.316406 L 166.027344 205.0625 L 164.113281 203.664062 L 166.484375 203.664062 Z M 167.214844 201.410156 " fill-opacity="1" fill-rule="nonzero"/><path fill="#ffffff" d="M 167.214844 211.371094 L 167.945312 213.621094 L 170.3125 213.621094 L 168.398438 215.019531 L 169.125 217.273438 L 167.214844 215.878906 L 165.300781 217.273438 L 166.027344 215.019531 L 164.113281 213.621094 L 166.484375 213.621094 Z M 167.214844 211.371094 " fill-opacity="1" fill-rule="nonzero"/><path fill="#ffffff" d="M 167.214844 221.335938 L 167.945312 223.589844 L 170.3125 223.589844 L 168.398438 224.984375 L 169.125 227.230469 L 167.214844 225.84375 L 165.300781 227.230469 L 166.027344 224.984375 L 164.113281 223.589844 L 166.484375 223.589844 Z M 167.214844 221.335938 " fill-opacity="1" fill-rule="nonzero"/><path fill="#ffffff" d="M 167.214844 231.292969 L 167.945312 233.546875 L 170.3125 233.546875 L 168.398438 234.945312 L 169.125 237.195312 L 167.214844 235.808594 L 165.300781 237.195312 L 166.027344 234.945312 L 164.113281 233.546875 L 166.484375 233.546875 Z M 167.214844 231.292969 " fill-opacity="1" fill-rule="nonzero"/><path fill="#ffffff" d="M 174.125 196.699219 L 174.863281 198.953125 L 177.222656 198.953125 L 175.3125 200.347656 L 176.042969 202.601562 L 174.125 201.207031 L 172.207031 202.601562 L 172.945312 200.347656 L 171.039062 198.953125 L 173.394531 198.953125 Z M 174.125 196.699219 " fill-opacity="1" fill-rule="nonzero"/><path fill="#ffffff" d="M 174.125 206.65625 L 174.863281 208.910156 L 177.222656 208.910156 L 175.3125 210.304688 L 176.042969 212.5625 L 174.125 211.167969 L 172.207031 212.5625 L 172.945312 210.304688 L 171.039062 208.910156 L 173.394531 208.910156 Z M 174.125 206.65625 " fill-opacity="1" fill-rule="nonzero"/><path fill="#ffffff" d="M 174.125 216.621094 L 174.863281 218.875 L 177.222656 218.875 L 175.3125 220.269531 L 176.042969 222.519531 L 174.125 221.128906 L 172.207031 222.519531 L 172.945312 220.269531 L 171.039062 218.875 L 173.394531 218.875 Z M 174.125 216.621094 " fill-opacity="1" fill-rule="nonzero"/><path fill="#ffffff" d="M 174.125 226.582031 L 174.863281 228.832031 L 177.222656 228.832031 L 175.3125 230.230469 L 176.042969 232.484375 L 174.125 231.085938 L 172.207031 232.484375 L 172.945312 230.230469 L 171.039062 228.832031 L 173.394531 228.832031 Z M 174.125 226.582031 " fill-opacity="1" fill-rule="nonzero"/><path fill="#ffffff" d="M 181.128906 191.445312 L 181.867188 193.707031 L 184.226562 193.707031 L 182.3125 195.097656 L 183.039062 197.355469 L 181.128906 195.957031 L 179.222656 197.355469 L 179.957031 195.097656 L 178.042969 193.707031 L 180.402344 193.707031 Z M 181.128906 191.445312 " fill-opacity="1" fill-rule="nonzero"/><path fill="#ffffff" d="M 181.128906 201.410156 L 181.867188 203.664062 L 184.226562 203.664062 L 182.3125 205.0625 L 183.039062 207.316406 L 181.128906 205.921875 L 179.222656 207.316406 L 179.957031 205.0625 L 178.042969 203.664062 L 180.402344 203.664062 Z M 181.128906 201.410156 " fill-opacity="1" fill-rule="nonzero"/><path fill="#ffffff" d="M 181.128906 211.371094 L 181.867188 213.621094 L 184.226562 213.621094 L 182.3125 215.019531 L 183.039062 217.273438 L 181.128906 215.878906 L 179.222656 217.273438 L 179.957031 215.019531 L 178.042969 213.621094 L 180.402344 213.621094 Z M 181.128906 211.371094 " fill-opacity="1" fill-rule="nonzero"/><path fill="#ffffff" d="M 181.128906 221.335938 L 181.867188 223.589844 L 184.226562 223.589844 L 182.3125 224.984375 L 183.039062 227.230469 L 181.128906 225.84375 L 179.222656 227.230469 L 179.957031 224.984375 L 178.042969 223.589844 L 180.402344 223.589844 Z M 181.128906 221.335938 " fill-opacity="1" fill-rule="nonzero"/><path fill="#ffffff" d="M 181.128906 231.292969 L 181.867188 233.546875 L 184.226562 233.546875 L 182.3125 234.945312 L 183.039062 237.195312 L 181.128906 235.808594 L 179.222656 237.195312 L 179.957031 234.945312 L 178.042969 233.546875 L 180.402344 233.546875 Z M 181.128906 231.292969 " fill-opacity="1" fill-rule="nonzero"/><path fill="#ffffff" d="M 188.042969 196.699219 L 188.78125 198.953125 L 191.140625 198.953125 L 189.230469 200.347656 L 189.960938 202.601562 L 188.042969 201.207031 L 186.136719 202.601562 L 186.855469 200.347656 L 184.957031 198.953125 L 187.316406 198.953125 Z M 188.042969 196.699219 " fill-opacity="1" fill-rule="nonzero"/><path fill="#ffffff" d="M 188.042969 206.65625 L 188.78125 208.910156 L 191.140625 208.910156 L 189.230469 210.304688 L 189.960938 212.5625 L 188.042969 211.167969 L 186.136719 212.5625 L 186.855469 210.304688 L 184.957031 208.910156 L 187.316406 208.910156 Z M 188.042969 206.65625 " fill-opacity="1" fill-rule="nonzero"/><path fill="#ffffff" d="M 188.042969 216.621094 L 188.78125 218.875 L 191.140625 218.875 L 189.230469 220.269531 L 189.960938 222.519531 L 188.042969 221.128906 L 186.136719 222.519531 L 186.855469 220.269531 L 184.957031 218.875 L 187.316406 218.875 Z M 188.042969 216.621094 " fill-opacity="1" fill-rule="nonzero"/><path fill="#ffffff" d="M 188.042969 226.582031 L 188.78125 228.832031 L 191.140625 228.832031 L 189.230469 230.230469 L 189.960938 232.484375 L 188.042969 231.085938 L 186.136719 232.484375 L 186.855469 230.230469 L 184.957031 228.832031 L 187.316406 228.832031 Z M 188.042969 226.582031 " fill-opacity="1" fill-rule="nonzero"/><path fill="#ffffff" d="M 195.050781 191.445312 L 195.78125 193.707031 L 198.148438 193.707031 L 196.230469 195.097656 L 196.96875 197.355469 L 195.050781 195.957031 L 193.140625 197.355469 L 193.871094 195.097656 L 191.953125 193.707031 L 194.320312 193.707031 Z M 195.050781 191.445312 " fill-opacity="1" fill-rule="nonzero"/><path fill="#ffffff" d="M 195.050781 201.410156 L 195.78125 203.664062 L 198.148438 203.664062 L 196.230469 205.0625 L 196.96875 207.316406 L 195.050781 205.921875 L 193.140625 207.316406 L 193.871094 205.0625 L 191.953125 203.664062 L 194.320312 203.664062 Z M 195.050781 201.410156 " fill-opacity="1" fill-rule="nonzero"/><path fill="#ffffff" d="M 195.050781 211.371094 L 195.78125 213.621094 L 198.148438 213.621094 L 196.230469 215.019531 L 196.96875 217.273438 L 195.050781 215.878906 L 193.140625 217.273438 L 193.871094 215.019531 L 191.953125 213.621094 L 194.320312 213.621094 Z M 195.050781 211.371094 " fill-opacity="1" fill-rule="nonzero"/><path fill="#ffffff" d="M 195.050781 221.335938 L 195.78125 223.589844 L 198.148438 223.589844 L 196.230469 224.984375 L 196.96875 227.230469 L 195.050781 225.84375 L 193.140625 227.230469 L 193.871094 224.984375 L 191.953125 223.589844 L 194.320312 223.589844 Z M 195.050781 221.335938 " fill-opacity="1" fill-rule="nonzero"/><path fill="#ffffff" d="M 195.050781 231.292969 L 195.78125 233.546875 L 198.148438 233.546875 L 196.230469 234.945312 L 196.96875 237.195312 L 195.050781 235.808594 L 193.140625 237.195312 L 193.871094 234.945312 L 191.953125 233.546875 L 194.320312 233.546875 Z M 195.050781 231.292969 " fill-opacity="1" fill-rule="nonzero"/><path fill="#ffffff" d="M 201.972656 196.699219 L 202.699219 198.953125 L 205.058594 198.953125 L 203.144531 200.347656 L 203.878906 202.601562 L 201.972656 201.207031 L 200.050781 202.601562 L 200.785156 200.347656 L 198.875 198.953125 L 201.238281 198.953125 Z M 201.972656 196.699219 " fill-opacity="1" fill-rule="nonzero"/><path fill="#ffffff" d="M 201.972656 206.65625 L 202.699219 208.910156 L 205.058594 208.910156 L 203.144531 210.304688 L 203.878906 212.5625 L 201.972656 211.167969 L 200.050781 212.5625 L 200.785156 210.304688 L 198.875 208.910156 L 201.238281 208.910156 Z M 201.972656 206.65625 " fill-opacity="1" fill-rule="nonzero"/><path fill="#ffffff" d="M 201.972656 216.621094 L 202.699219 218.875 L 205.058594 218.875 L 203.144531 220.269531 L 203.878906 222.519531 L 201.972656 221.128906 L 200.050781 222.519531 L 200.785156 220.269531 L 198.875 218.875 L 201.238281 218.875 Z M 201.972656 216.621094 " fill-opacity="1" fill-rule="nonzero"/><path fill="#ffffff" d="M 201.972656 226.582031 L 202.699219 228.832031 L 205.058594 228.832031 L 203.144531 230.230469 L 203.878906 232.484375 L 201.972656 231.085938 L 200.050781 232.484375 L 200.785156 230.230469 L 198.875 228.832031 L 201.238281 228.832031 Z M 201.972656 226.582031 " fill-opacity="1" fill-rule="nonzero"/><path fill="#ffffff" d="M 208.972656 191.445312 L 209.699219 193.707031 L 212.0625 193.707031 L 210.160156 195.097656 L 210.882812 197.355469 L 208.972656 195.957031 L 207.0625 197.355469 L 207.792969 195.097656 L 205.875 193.707031 L 208.238281 193.707031 Z M 208.972656 191.445312 " fill-opacity="1" fill-rule="nonzero"/><path fill="#ffffff" d="M 208.972656 201.410156 L 209.699219 203.664062 L 212.0625 203.664062 L 210.160156 205.0625 L 210.882812 207.316406 L 208.972656 205.921875 L 207.0625 207.316406 L 207.792969 205.0625 L 205.875 203.664062 L 208.238281 203.664062 Z M 208.972656 201.410156 " fill-opacity="1" fill-rule="nonzero"/><path fill="#ffffff" d="M 208.972656 211.371094 L 209.699219 213.621094 L 212.0625 213.621094 L 210.160156 215.019531 L 210.882812 217.273438 L 208.972656 215.878906 L 207.0625 217.273438 L 207.792969 215.019531 L 205.875 213.621094 L 208.238281 213.621094 Z M 208.972656 211.371094 " fill-opacity="1" fill-rule="nonzero"/><path fill="#ffffff" d="M 208.972656 221.335938 L 209.699219 223.589844 L 212.0625 223.589844 L 210.160156 224.984375 L 210.882812 227.230469 L 208.972656 225.84375 L 207.0625 227.230469 L 207.792969 224.984375 L 205.875 223.589844 L 208.238281 223.589844 Z M 208.972656 221.335938 " fill-opacity="1" fill-rule="nonzero"/><path fill="#ffffff" d="M 208.972656 231.292969 L 209.699219 233.546875 L 212.0625 233.546875 L 210.160156 234.945312 L 210.882812 237.195312 L 208.972656 235.808594 L 207.0625 237.195312 L 207.792969 234.945312 L 205.875 233.546875 L 208.238281 233.546875 Z M 208.972656 231.292969 " fill-opacity="1" fill-rule="nonzero"/><path fill="#ffffff" d="M 215.890625 196.699219 L 216.613281 198.953125 L 218.980469 198.953125 L 217.070312 200.347656 L 217.792969 202.601562 L 215.890625 201.207031 L 213.96875 202.601562 L 214.699219 200.347656 L 212.796875 198.953125 L 215.15625 198.953125 Z M 215.890625 196.699219 " fill-opacity="1" fill-rule="nonzero"/><path fill="#ffffff" d="M 215.890625 206.65625 L 216.613281 208.910156 L 218.980469 208.910156 L 217.070312 210.304688 L 217.792969 212.5625 L 215.890625 211.167969 L 213.96875 212.5625 L 214.699219 210.304688 L 212.796875 208.910156 L 215.15625 208.910156 Z M 215.890625 206.65625 " fill-opacity="1" fill-rule="nonzero"/><path fill="#ffffff" d="M 215.890625 216.621094 L 216.613281 218.875 L 218.980469 218.875 L 217.070312 220.269531 L 217.792969 222.519531 L 215.890625 221.128906 L 213.96875 222.519531 L 214.699219 220.269531 L 212.796875 218.875 L 215.15625 218.875 Z M 215.890625 216.621094 " fill-opacity="1" fill-rule="nonzero"/><path fill="#ffffff" d="M 215.890625 226.582031 L 216.613281 228.832031 L 218.980469 228.832031 L 217.070312 230.230469 L 217.792969 232.484375 L 215.890625 231.085938 L 213.96875 232.484375 L 214.699219 230.230469 L 212.796875 228.832031 L 215.15625 228.832031 Z M 215.890625 226.582031 " fill-opacity="1" fill-rule="nonzero"/><path fill="#ffffff" d="M 222.890625 191.445312 L 223.621094 193.707031 L 225.980469 193.707031 L 224.070312 195.097656 L 224.800781 197.355469 L 222.890625 195.957031 L 220.972656 197.355469 L 221.710938 195.097656 L 219.792969 193.707031 L 222.160156 193.707031 Z M 222.890625 191.445312 " fill-opacity="1" fill-rule="nonzero"/><path fill="#ffffff" d="M 222.890625 201.410156 L 223.621094 203.664062 L 225.980469 203.664062 L 224.070312 205.0625 L 224.800781 207.316406 L 222.890625 205.921875 L 220.972656 207.316406 L 221.710938 205.0625 L 219.792969 203.664062 L 222.160156 203.664062 Z M 222.890625 201.410156 " fill-opacity="1" fill-rule="nonzero"/><path fill="#ffffff" d="M 222.890625 211.371094 L 223.621094 213.621094 L 225.980469 213.621094 L 224.070312 215.019531 L 224.800781 217.273438 L 222.890625 215.878906 L 220.972656 217.273438 L 221.710938 215.019531 L 219.792969 213.621094 L 222.160156 213.621094 Z M 222.890625 211.371094 " fill-opacity="1" fill-rule="nonzero"/><path fill="#ffffff" d="M 222.890625 221.335938 L 223.621094 223.589844 L 225.980469 223.589844 L 224.070312 224.984375 L 224.800781 227.230469 L 222.890625 225.84375 L 220.972656 227.230469 L 221.710938 224.984375 L 219.792969 223.589844 L 222.160156 223.589844 Z M 222.890625 221.335938 " fill-opacity="1" fill-rule="nonzero"/><path fill="#ffffff" d="M 222.890625 231.292969 L 223.621094 233.546875 L 225.980469 233.546875 L 224.070312 234.945312 L 224.800781 237.195312 L 222.890625 235.808594 L 220.972656 237.195312 L 221.710938 234.945312 L 219.792969 233.546875 L 222.160156 233.546875 Z M 222.890625 231.292969 " fill-opacity="1" fill-rule="nonzero"/></svg>